<svg width="198" height="40" viewBox="0 0 198 40" fill="none" xmlns="http://www.w3.org/2000/svg">
<path d="M56.1739 22.378L51.1775 9.65546H45.8243L53.9137 28.7987H58.1963L66.0477 9.65546H61.0513L56.1739 22.378Z" fill="#E60000"/>
<path d="M82.5833 12.2714C81.8696 11.3202 80.9179 10.6068 79.7283 10.0122C78.5386 9.41774 77.2301 9.17993 75.6836 9.17993C74.1371 9.17993 72.8285 9.41774 71.6389 10.0122C70.4493 10.6068 69.4976 11.3202 68.7838 12.2714C68.07 13.2226 67.4752 14.2927 67.1184 15.4818C66.7615 16.6708 66.5235 17.8598 66.5235 19.1677C66.5235 20.3568 66.7615 21.6647 67.1184 22.8537C67.4752 24.0427 68.07 25.1129 68.7838 26.0641C69.4976 27.0153 70.4493 27.7287 71.6389 28.3232C72.8285 28.9177 74.1371 29.1555 75.6836 29.1555C77.2301 29.1555 78.5386 28.9177 79.7283 28.3232C80.9179 27.7287 81.8696 27.0153 82.5833 26.0641C83.2971 25.1129 83.8919 24.0427 84.2488 22.8537C84.6057 21.6647 84.8436 20.4757 84.8436 19.1677C84.8436 17.9787 84.6057 16.6708 84.2488 15.4818C83.8919 14.2927 83.2971 13.2226 82.5833 12.2714ZM79.7283 21.4269C79.4903 22.1403 79.2524 22.7348 78.8955 23.3293C78.5386 23.8049 78.0628 24.2805 77.587 24.6372C77.1111 24.994 76.3973 25.1129 75.6836 25.1129C74.9698 25.1129 74.375 24.994 73.7802 24.6372C73.1854 24.2805 72.8285 23.9238 72.4716 23.3293C72.1147 22.8537 71.8768 22.1403 71.6389 21.4269C71.401 20.7135 71.401 20 71.401 19.1677C71.401 18.3354 71.5199 17.622 71.6389 16.9086C71.8768 16.1952 72.1147 15.6007 72.4716 15.0061C72.8285 14.5305 73.3043 14.0549 73.7802 13.8171C74.256 13.4604 74.9698 13.3415 75.6836 13.3415C76.3973 13.3415 76.9921 13.4604 77.587 13.8171C78.0628 14.1738 78.5386 14.5305 78.8955 15.0061C79.2524 15.4818 79.4903 16.1952 79.7283 16.9086C79.9662 17.622 79.9662 18.3354 79.9662 19.1677C79.9662 20 79.8472 20.7135 79.7283 21.4269Z" fill="#E60000"/>
<path d="M99.7138 9.77439C98.5242 9.41768 97.4535 9.17988 96.5018 9.17988C94.9553 9.17988 93.6467 9.41768 92.4571 10.0122C91.2675 10.6067 90.3158 11.3201 89.602 12.2713C88.8883 13.2226 88.2935 14.2927 87.9366 15.4817C87.5797 16.6707 87.3418 17.8598 87.3418 19.1677C87.3418 20.4756 87.4607 21.7835 87.8176 22.9726C88.1745 24.1616 88.6504 25.2317 89.3641 26.1829C90.0779 27.1341 90.9106 27.8476 91.8623 28.4421C92.814 29.0366 94.0036 29.2744 95.3122 29.2744C96.2639 29.2744 97.2156 29.0366 97.9293 28.6799C98.6431 28.3232 99.2379 27.8476 99.7138 27.372L99.9517 28.7988H104.472V2.28354H99.5948V9.77439H99.7138ZM99.7138 23.3293C99.4758 23.8049 99 24.1616 98.4052 24.5183C97.8104 24.875 97.0966 24.9939 96.5018 24.9939C95.788 24.9939 95.0743 24.875 94.5984 24.5183C94.0036 24.1616 93.6467 23.8049 93.2899 23.2104C92.933 22.6159 92.695 22.0213 92.4571 21.3079C92.3382 20.5945 92.2192 19.7622 92.2192 19.0488C92.2192 18.3354 92.3382 17.622 92.4571 16.9085C92.695 16.1951 92.933 15.6006 93.2899 15.125C93.6467 14.5305 94.2415 14.1738 94.8364 13.8171C95.4312 13.4604 96.1449 13.3415 96.9777 13.3415C97.8104 13.3415 98.6431 13.5793 99.5948 13.936V23.3293H99.7138Z" fill="#E60000"/>
<path d="M121.365 10.9635C120.77 10.369 119.937 9.89335 119.104 9.65554C118.272 9.41774 117.201 9.17993 116.249 9.17993C115.298 9.17993 114.465 9.29883 113.751 9.41774C112.918 9.53664 112.324 9.77444 111.61 10.0122C111.015 10.2501 110.42 10.4879 110.063 10.8446C109.588 11.0824 109.35 11.3202 109.112 11.558L110.777 15.0061C111.015 14.8872 111.253 14.6494 111.491 14.4116C111.848 14.1738 112.205 14.0549 112.562 13.8171C112.918 13.5793 113.394 13.4604 113.87 13.3415C114.346 13.2226 114.941 13.1037 115.417 13.1037C116.368 13.1037 117.082 13.3415 117.677 13.8171C118.272 14.2927 118.51 15.0061 118.51 16.0763V16.3141C118.034 16.3141 117.32 16.433 116.606 16.5519C115.893 16.6708 115.179 16.6708 114.465 16.9086C113.513 17.0275 112.681 17.2653 111.848 17.622C111.015 17.9787 110.301 18.3354 109.707 18.811C109.112 19.2866 108.517 19.8811 108.16 20.7135C107.803 21.4269 107.565 22.2592 107.565 23.2104C107.565 24.1616 107.803 24.994 108.16 25.8263C108.517 26.5397 108.993 27.2531 109.588 27.7287C110.182 28.2043 110.896 28.6799 111.61 28.9177C112.324 29.1555 113.156 29.3933 113.989 29.3933C114.941 29.3933 115.893 29.2744 116.725 28.9177C117.558 28.561 118.272 28.0854 118.748 27.4909L118.986 28.9177H123.506V16.5519C123.506 15.244 123.268 14.1738 122.911 13.2226C122.435 12.2714 121.96 11.558 121.365 10.9635ZM118.51 23.686C118.034 24.0427 117.558 24.3994 116.963 24.6372C116.368 24.875 115.774 24.9939 115.06 24.9939C114.227 24.9939 113.513 24.7561 113.037 24.3994C112.562 24.0427 112.324 23.4482 112.324 22.8537C112.324 22.2592 112.562 21.6647 112.918 21.1891C113.275 20.7135 114.108 20.3568 115.179 20.119C115.655 20 116.249 19.8811 116.725 19.8811C117.32 19.7622 117.796 19.7622 118.391 19.7622V23.686H118.51Z" fill="#E60000"/>
<path d="M134.094 6.80179C134.569 6.44508 135.164 6.20728 135.878 6.20728C136.592 6.20728 137.306 6.32618 137.781 6.44508C138.257 6.56398 138.614 6.68289 138.733 6.80179L139.328 2.7591C139.209 2.6402 138.733 2.5213 137.9 2.2835C137.068 2.04569 136.116 1.92679 134.926 1.92679C133.975 1.92679 133.142 2.04569 132.428 2.2835C131.714 2.5213 131.001 2.87801 130.406 3.47252C129.811 4.06703 129.335 4.66154 129.097 5.61276C128.74 6.44508 128.621 7.5152 128.621 8.82313V9.89325H126.123V13.817H128.621V29.0365H133.499V13.6981H137.543V9.77435H133.38V8.82313C133.38 7.87191 133.618 7.15849 134.094 6.80179Z" fill="#E60000"/>
<path d="M154.555 12.2714C153.841 11.3202 152.889 10.6068 151.7 10.0122C150.51 9.41774 149.202 9.17993 147.655 9.17993C146.109 9.17993 144.8 9.41774 143.61 10.0122C142.421 10.6068 141.469 11.3202 140.755 12.2714C140.042 13.2226 139.447 14.2927 139.09 15.4818C138.733 16.6708 138.495 17.8598 138.495 19.1677C138.495 20.3568 138.733 21.6647 139.09 22.8537C139.447 24.0427 140.042 25.1129 140.755 26.0641C141.469 27.0153 142.421 27.7287 143.61 28.3232C144.8 28.9177 146.109 29.1555 147.655 29.1555C149.202 29.1555 150.51 28.9177 151.7 28.3232C152.889 27.7287 153.841 27.0153 154.555 26.0641C155.269 25.1129 155.864 24.0427 156.22 22.8537C156.577 21.6647 156.815 20.4757 156.815 19.1677C156.815 17.9787 156.577 16.6708 156.22 15.4818C155.982 14.2927 155.388 13.2226 154.555 12.2714ZM151.819 21.4269C151.581 22.1403 151.343 22.7348 150.986 23.3293C150.629 23.8049 150.153 24.2805 149.678 24.6372C149.202 24.994 148.488 25.1129 147.774 25.1129C147.06 25.1129 146.466 24.994 145.871 24.6372C145.276 24.2805 144.919 23.9238 144.562 23.3293C144.205 22.8537 143.967 22.1403 143.729 21.4269C143.492 20.7135 143.492 20 143.492 19.1677C143.492 18.3354 143.61 17.622 143.729 16.9086C143.967 16.1952 144.205 15.6007 144.562 15.0061C144.919 14.5305 145.395 14.0549 145.871 13.8171C146.347 13.4604 147.06 13.3415 147.774 13.3415C148.488 13.3415 149.083 13.4604 149.678 13.8171C150.153 14.1738 150.629 14.5305 150.986 15.0061C151.343 15.4818 151.581 16.1952 151.819 16.9086C152.057 17.622 152.057 18.3354 152.057 19.1677C152.057 20 151.938 20.7135 151.819 21.4269Z" fill="#E60000"/>
<path d="M175.254 11.0824C174.659 10.369 173.946 9.89335 173.113 9.65554C172.28 9.29883 171.329 9.17993 170.377 9.17993C169.425 9.17993 168.473 9.29883 167.403 9.65554C166.451 10.0122 165.618 10.4879 164.786 11.0824L164.548 9.53664H160.027V28.6799H164.905V15.244C165.38 14.7683 165.975 14.2927 166.57 13.936C167.165 13.5793 167.879 13.3415 168.711 13.3415C169.782 13.3415 170.615 13.6982 171.21 14.5305C171.804 15.3629 172.161 16.433 172.161 17.8598V28.7988H177.039V17.5031C177.039 16.0763 176.92 14.7683 176.563 13.6982C176.325 12.6281 175.849 11.7958 175.254 11.0824Z" fill="#E60000"/>
<path d="M197.5 19.6433C197.5 17.8598 197.262 16.1952 196.786 14.8872C196.31 13.5793 195.716 12.5092 195.002 11.6769C194.288 10.8446 193.336 10.2501 192.266 9.77444C191.195 9.41774 190.124 9.17993 188.935 9.17993C187.745 9.17993 186.556 9.41774 185.485 9.89335C184.414 10.369 183.463 10.9635 182.63 11.7958C181.797 12.6281 181.202 13.6982 180.726 14.8872C180.251 16.0763 180.013 17.622 180.013 19.1677C180.013 20.8324 180.251 22.3781 180.726 23.5671C181.202 24.7561 181.916 25.8263 182.749 26.6586C183.582 27.4909 184.533 28.0854 185.723 28.561C186.793 28.9177 187.983 29.1555 189.292 29.1555C190.243 29.1555 191.195 29.0366 192.028 28.9177C192.86 28.7988 193.574 28.561 194.169 28.4421C194.764 28.2043 195.24 28.0854 195.716 27.8476C196.072 27.6098 196.429 27.4909 196.667 27.2531L195.359 23.2104C195.24 23.3293 195.002 23.5671 194.645 23.686C194.288 23.9238 193.931 24.0427 193.455 24.2805C192.979 24.5183 192.504 24.6372 191.909 24.7561C191.314 24.875 190.719 24.9939 190.005 24.9939C188.578 24.9939 187.388 24.6372 186.437 23.9238C185.485 23.2104 185.009 22.0214 184.89 20.4757H197.381V19.6433H197.5ZM185.247 16.9086C185.366 15.6007 185.842 14.6494 186.556 14.0549C187.388 13.4604 188.102 13.1037 189.054 13.1037C189.411 13.1037 189.886 13.2226 190.243 13.3415C190.6 13.4604 190.957 13.6982 191.314 14.0549C191.671 14.4116 191.909 14.7683 192.147 15.244C192.385 15.7196 192.504 16.3141 192.623 17.0275H185.247V16.9086Z" fill="#E60000"/>
<path d="M28.3369 2.28355C27.9801 2.16464 27.5042 2.16464 26.9094 2.16464C22.8647 2.16464 18.3442 3.94818 15.1322 6.56403C11.8013 9.29879 9.18417 14.0549 9.18417 18.811C9.18417 26.1829 14.7754 30.7012 20.1286 30.7012C26.7905 30.7012 30.5972 25.2317 30.5972 20.3567C30.5972 15.3628 27.8611 11.7957 21.913 10.3689C21.913 10.25 21.913 10.1311 21.913 10.0122C21.913 6.32623 24.7681 3.11586 28.3369 2.28355Z" fill="white"/>
<path d="M37.378 11.3201C35.4746 7.39634 32.2627 4.30488 28.218 2.40244C24.6492 3.11585 21.913 6.44512 21.913 10.1311C21.913 10.25 21.913 10.3689 21.913 10.4878C27.8611 11.9146 30.5972 15.4817 30.5972 20.4756C30.5972 25.4695 26.6715 30.8201 20.1286 30.8201C14.7754 30.8201 9.18418 26.3018 9.18418 18.9299C9.18418 14.0549 11.8013 9.41768 15.1322 6.68293C18.3442 3.94817 22.8647 2.28354 26.9094 2.28354C27.3853 2.28354 27.9801 2.28354 28.337 2.40244C25.8388 1.21341 22.9837 0.5 20.0097 0.5C15.4891 0.5 11.3255 2.04573 7.99456 4.66159C3.47403 8.22866 0.5 13.6982 0.5 20C0.5 30.7012 9.18418 39.5 20.0097 39.5C30.8351 39.5 39.5193 30.8201 39.5193 20C39.4004 16.7896 38.6866 13.936 37.378 11.3201Z" fill="#E60000"/>
</svg>
